<svg width="40" height="40" viewBox="0 0 40 40" fill="none" xmlns="http://www.w3.org/2000/svg">
<circle cx="19.9997" cy="19.9997" r="16.6667" fill="#1F1F1F"/>
<path fill-rule="evenodd" clip-rule="evenodd" d="M30 13.5909C29.2647 13.9175 28.4734 14.1375 27.6435 14.2368C28.4908 13.7289 29.1414 12.9249 29.4474 11.967C28.6554 12.4376 27.7761 12.7783 26.8422 12.9629C26.0936 12.1656 25.0263 11.667 23.8471 11.667C21.5812 11.667 19.744 13.5042 19.744 15.7701C19.744 16.0914 19.7807 16.4047 19.8507 16.7053C16.4402 16.5347 13.4171 14.9008 11.3932 12.4183C11.0399 13.0242 10.8379 13.7289 10.8379 14.4808C10.8379 15.904 11.5612 17.16 12.6632 17.8959C11.9899 17.8746 11.3579 17.6899 10.8039 17.3826V17.4339C10.8039 19.4225 12.2192 21.0804 14.0951 21.4583C13.7511 21.5517 13.3884 21.6023 13.0145 21.6023C12.7498 21.6023 12.4925 21.5763 12.2418 21.5283C12.7638 23.1582 14.2797 24.3448 16.0749 24.3781C14.671 25.4781 12.9018 26.1347 10.9793 26.1347C10.6473 26.1347 10.3206 26.1154 10 26.0767C11.8159 27.2406 13.9724 27.9206 16.2896 27.9206C23.8364 27.9206 27.9635 21.6683 27.9635 16.2467C27.9635 16.0687 27.9601 15.8914 27.9515 15.7161C28.7541 15.1361 29.45 14.4135 30 13.5909Z" fill="#FFFCF6"/>
</svg>
