<svg width="40" height="40" viewBox="0 0 40 40" fill="none" xmlns="http://www.w3.org/2000/svg">
<circle cx="19.9997" cy="19.9997" r="16.6667" fill="#1F1F1F"/>
<path d="M20 11.8018C22.6701 11.8018 22.9864 11.812 24.0409 11.8601C25.0158 11.9046 25.5453 12.0675 25.8977 12.2044C26.3645 12.3858 26.6976 12.6025 27.0475 12.9524C27.3975 13.3024 27.6142 13.6355 27.7956 14.1023C27.9325 14.4546 28.0954 14.9841 28.1399 15.9591C28.188 17.0136 28.1982 17.3299 28.1982 19.9999C28.1982 22.6701 28.188 22.9864 28.1399 24.0408C28.0954 25.0158 27.9325 25.5453 27.7956 25.8977C27.6142 26.3644 27.3975 26.6976 27.0476 27.0475C26.6976 27.3974 26.3645 27.6141 25.8977 27.7955C25.5453 27.9325 25.0158 28.0954 24.0409 28.1398C22.9866 28.1879 22.6703 28.1981 20 28.1981C17.3297 28.1981 17.0135 28.1879 15.9591 28.1398C14.9842 28.0954 14.4547 27.9325 14.1023 27.7955C13.6355 27.6141 13.3024 27.3974 12.9525 27.0475C12.6026 26.6976 12.3858 26.3644 12.2044 25.8977C12.0675 25.5453 11.9046 25.0158 11.8601 24.0408C11.812 22.9864 11.8018 22.6701 11.8018 19.9999C11.8018 17.3299 11.812 17.0136 11.8601 15.9591C11.9046 14.9841 12.0675 14.4546 12.2044 14.1023C12.3858 13.6355 12.6025 13.3024 12.9525 12.9525C13.3024 12.6025 13.6355 12.3858 14.1023 12.2044C14.4547 12.0675 14.9842 11.9046 15.9591 11.8601C17.0136 11.812 17.3299 11.8018 20 11.8018ZM20 10C17.2842 10 16.9436 10.0115 15.877 10.0602C14.8126 10.1087 14.0857 10.2778 13.4496 10.525C12.792 10.7805 12.2344 11.1225 11.6784 11.6784C11.1225 12.2343 10.7805 12.792 10.525 13.4496C10.2778 14.0857 10.1087 14.8126 10.0602 15.877C10.0115 16.9436 10 17.2841 10 19.9999C10 22.7158 10.0115 23.0563 10.0602 24.1229C10.1087 25.1873 10.2778 25.9143 10.525 26.5503C10.7805 27.2079 11.1225 27.7656 11.6784 28.3216C12.2344 28.8775 12.792 29.2194 13.4496 29.4749C14.0857 29.7221 14.8126 29.8912 15.877 29.9398C16.9436 29.9884 17.2842 29.9999 20 29.9999C22.7158 29.9999 23.0564 29.9884 24.123 29.9398C25.1874 29.8912 25.9143 29.7221 26.5504 29.4749C27.208 29.2194 27.7656 28.8775 28.3216 28.3216C28.8775 27.7656 29.2195 27.2079 29.475 26.5503C29.7222 25.9143 29.8913 25.1873 29.9398 24.1229C29.9885 23.0563 30 22.7158 30 19.9999C30 17.2841 29.9885 16.9436 29.9398 15.877C29.8913 14.8126 29.7222 14.0857 29.475 13.4496C29.2195 12.792 28.8775 12.2343 28.3216 11.6784C27.7656 11.1225 27.208 10.7805 26.5504 10.525C25.9143 10.2778 25.1874 10.1087 24.123 10.0602C23.0564 10.0115 22.7158 10 20 10Z" fill="#FFFCF6"/>
<path d="M20.0043 14.8691C17.1682 14.8691 14.8691 17.1682 14.8691 20.0042C14.8691 22.8403 17.1682 25.1394 20.0043 25.1394C22.8403 25.1394 25.1394 22.8403 25.1394 20.0042C25.1394 17.1682 22.8403 14.8691 20.0043 14.8691ZM20.0043 23.3376C18.1633 23.3376 16.6709 21.8452 16.6709 20.0042C16.6709 18.1633 18.1633 16.6709 20.0043 16.6709C21.8452 16.6709 23.3376 18.1633 23.3376 20.0042C23.3376 21.8452 21.8452 23.3376 20.0043 23.3376Z" fill="#FFFCF6"/>
<path d="M26.5426 14.6629C26.5426 15.3256 26.0053 15.8629 25.3426 15.8629C24.6799 15.8629 24.1426 15.3256 24.1426 14.6629C24.1426 14.0002 24.6799 13.4629 25.3426 13.4629C26.0053 13.4629 26.5426 14.0002 26.5426 14.6629Z" fill="#FFFCF6"/>
</svg>
